<svg width="400" height="57" viewBox="0 0 400 57" fill="none" xmlns="http://www.w3.org/2000/svg">
<path fill-rule="evenodd" clip-rule="evenodd" d="M50.8645 25.6825H37.4796V29.9029H45.6794V42.0217C44.4734 42.6247 42.1221 43.107 38.6854 43.107C29.1592 43.107 23.0093 37.0175 23.0093 26.7075C23.0093 16.518 29.4606 10.3681 39.3487 10.3681C43.4486 10.3681 46.1617 11.0917 48.3322 12.1166L49.6587 7.83588C47.9101 6.99177 44.172 5.9668 39.4692 5.9668C25.8431 5.9668 17.4624 14.8298 17.4624 26.9486C17.4624 33.2794 19.633 38.7057 23.1299 42.082C27.1092 45.8805 32.1737 47.4481 38.3237 47.4481C43.8102 47.4481 48.5131 46.1217 50.8645 45.2173V25.6825V25.6825ZM148.297 46.9055C150.95 47.207 154.025 47.3879 157.824 47.3879C165.722 47.3879 171.992 45.3378 175.851 41.5394C179.589 37.8013 181.699 32.3749 181.699 25.7428C181.699 19.1709 179.589 14.468 175.911 11.1519C172.354 7.89613 166.988 6.08732 159.451 6.08732C155.291 6.08732 151.493 6.44911 148.297 6.99177V46.9055V46.9055ZM153.543 10.7902C154.93 10.4887 156.979 10.2476 159.693 10.2476C170.786 10.2476 176.213 16.3371 176.153 25.9236C176.153 36.8969 170.123 43.1673 158.849 43.1673C156.799 43.1673 154.869 43.107 153.543 42.9262V10.7902V10.7902ZM217.875 47.0261L221.734 29.5411C222.698 25.4413 223.362 21.5826 224.085 17.0004H224.206C224.688 21.6429 225.351 25.4413 226.135 29.5411L229.572 47.0261H239.52L250.011 6.38877H240.666L237.35 22.9692C236.505 27.853 235.601 32.6162 234.998 37.1381H234.878C234.275 32.6162 233.611 28.275 232.707 23.5119L229.451 6.38877H219.684L216.247 22.9692C215.222 28.0339 214.257 32.9176 213.594 37.319H213.474C212.81 33.219 211.966 27.9736 211.062 23.0899L207.987 6.38877H198.159L207.806 47.0261H217.875ZM256.04 6.38877V47.0261H265.205V30.0235H280.338V47.0261H289.503V6.38877H280.338V22.0046H265.205V6.38877H256.04ZM322.905 22.3664H307.952V13.9253H323.809V6.38877H298.788V47.0261H324.653V39.4895H307.952V29.8427H322.905V22.3664V22.3664ZM356.307 22.3664H341.354V13.9253H357.211V6.38877H332.19V47.0261H358.055V39.4895H341.354V29.8427H356.307V22.3664V22.3664ZM365.592 47.0261H390.915V39.3086H374.757V6.38877H365.592V47.0261Z" fill="#1B1918"/>
<path fill-rule="evenodd" clip-rule="evenodd" d="M76.1172 48.1776C64.647 48.1764 55.3578 38.8895 55.3613 27.4272C55.3649 16.0536 64.7015 6.71787 76.0566 6.73489C87.5584 6.75242 96.8265 15.9985 96.8351 27.4627C96.843 38.8865 87.5494 48.1791 76.1172 48.1776V48.1776ZM76.1473 11.7054C67.5509 11.6773 60.4309 18.7017 60.3218 27.1448C60.2092 35.8338 67.1335 43.1435 75.899 43.2252C84.6124 43.3057 91.7449 36.2994 91.8801 27.8097C92.0218 18.9395 84.8187 11.6628 76.1473 11.7054V11.7054Z" fill="black"/>
<path fill-rule="evenodd" clip-rule="evenodd" d="M76.1472 11.7053C84.8186 11.6627 92.0217 18.9394 91.88 27.8096C91.7448 36.2992 84.6123 43.3056 75.8988 43.225C67.1333 43.1434 60.209 35.8337 60.3217 27.1447C60.4308 18.7016 67.5508 11.6772 76.1472 11.7053V11.7053ZM76.1086 42.8315C84.5837 42.8145 91.47 35.9233 91.4595 27.4712C91.4485 19.001 84.5858 12.0972 76.1927 12.1137C67.5999 12.1303 60.7171 18.975 60.7367 27.4837C60.7567 35.9453 67.671 42.8491 76.1086 42.8315V42.8315Z" fill="white"/>
<path fill-rule="evenodd" clip-rule="evenodd" d="M76.1088 42.8316C67.6712 42.8491 60.7569 35.9454 60.7369 27.4837C60.7174 18.975 67.6001 12.1303 76.1929 12.1138C84.586 12.0973 91.4487 19.0011 91.4597 27.4712C91.4702 35.9233 84.5839 42.8146 76.1088 42.8316V42.8316ZM90.0925 27.5623C90.1817 19.9082 83.9612 13.5816 76.237 13.4714C68.5572 13.3618 62.2126 19.6023 62.116 27.3606C62.0209 35.0108 68.2344 41.3278 75.9711 41.447C83.6388 41.5651 90.0024 35.3081 90.0925 27.5623V27.5623Z" fill="#3C3B3B"/>
<path fill-rule="evenodd" clip-rule="evenodd" d="M90.0923 27.5625C90.0022 35.3083 83.6386 41.5653 75.9709 41.4472C68.2342 41.3281 62.0207 35.011 62.1158 27.3608C62.2124 19.6025 68.557 13.362 76.2367 13.4716C83.961 13.5818 90.1815 19.9084 90.0923 27.5625V27.5625ZM89.6693 27.2767C89.6003 19.8068 83.3948 13.7229 75.8863 13.9007C68.1075 14.0844 62.3236 20.2743 62.5393 28.0952C62.7401 35.3874 69.1548 41.2735 76.6412 41.0357C83.9129 40.8044 89.8841 34.4984 89.6693 27.2767V27.2767Z" fill="white"/>
<path fill-rule="evenodd" clip-rule="evenodd" d="M89.6696 27.2763C89.8843 34.498 83.9132 40.804 76.6415 41.0353C69.155 41.2731 62.7403 35.387 62.5395 28.0948C62.3238 20.2739 68.1077 14.084 75.8865 13.9003C83.395 13.7225 89.6005 19.8064 89.6696 27.2763ZM87.2011 20.5047C86.9303 20.1262 86.679 19.8119 86.4698 19.4719C86.245 19.1065 86.0147 19.13 85.6848 19.3388C84.7306 19.943 83.7204 20.4667 82.8064 21.1249C81.9668 21.7286 81.2074 22.4485 80.446 23.1529C80.0741 23.4968 80.049 23.9628 80.3499 24.3753C80.6663 24.8084 81.0828 24.8679 81.5964 24.6637C83.8221 23.7786 85.3304 21.9579 87.2011 20.5047V20.5047ZM72.921 40.1863C73.6519 38.0182 74.9279 36.1239 75.0956 33.8286C75.1547 33.0187 74.999 32.5852 74.4313 32.439C73.7825 32.2713 73.4897 32.7028 73.1838 33.1789C72.2487 34.6341 72.0324 36.3171 71.623 37.9396C71.4848 38.4872 71.3676 39.0409 71.233 39.6241C71.8031 39.8138 72.3033 39.9805 72.921 40.1863V40.1863ZM89.1905 28.3436C89.1905 27.871 89.204 27.451 89.186 27.032C89.171 26.6801 88.9853 26.5069 88.6078 26.5089C88.2063 26.5104 87.8048 26.4533 87.4029 26.4278C85.7499 26.3216 84.0999 26.0118 82.4434 26.4548C81.7766 26.6335 81.3235 26.98 81.3371 27.486C81.3556 28.1704 81.8507 28.3281 82.4023 28.4627C84.6541 29.0119 86.8727 28.4377 89.1905 28.3436ZM80.9856 39.6181C80.6307 38.1393 80.3539 36.7196 79.9364 35.342C79.6751 34.4799 79.2581 33.6489 78.7945 32.873C78.6408 32.6162 78.1167 32.4445 77.7778 32.467C77.3203 32.4976 77.0229 32.905 77.091 33.3861C77.2151 34.2647 77.3137 35.1653 77.5946 35.9987C78.0136 37.2443 78.5798 38.4407 79.0879 39.6556C79.158 39.8238 79.2526 39.982 79.3487 40.1693C79.9029 39.983 80.402 39.8148 80.9856 39.6181ZM71.235 15.337C71.5443 16.6486 71.7901 17.9656 72.1776 19.2392C72.4654 20.1833 72.916 21.0819 73.338 21.9799C73.5487 22.4285 73.9663 22.6292 74.4598 22.4736C74.9759 22.3109 75.2253 21.9089 75.1146 21.3832C74.8979 20.351 74.6756 19.3163 74.3702 18.308C74.1439 17.5591 73.782 16.8513 73.4822 16.1244C72.8664 14.6317 72.8669 14.6317 71.235 15.337V15.337ZM80.9796 15.3875C79.4989 14.547 79.3757 14.5836 78.776 16.0083C78.5192 16.6175 78.2929 17.2403 78.0106 17.8365C77.503 18.9093 77.1931 20.0271 77.1 21.21C77.0444 21.9204 77.2517 22.3589 77.7733 22.4861C78.3825 22.6342 78.6964 22.2743 78.9922 21.7977C80.2192 19.8199 80.3334 17.5171 80.9796 15.3875V15.3875ZM66.0492 35.8561C66.8052 35.3965 67.4915 34.975 68.1818 34.5605C69.4388 33.8066 70.7219 33.0958 71.664 31.9179C72.0219 31.4703 72.2051 31.0323 71.8472 30.5387C71.4818 30.0341 71.0107 30.1097 70.4811 30.3235C68.3055 31.2005 66.8542 33.0137 64.9965 34.4144C65.3694 34.925 65.6993 35.377 66.0492 35.8561V35.8561ZM86.1313 35.8746C86.4557 35.4376 86.7606 35.0596 87.0199 34.6526C87.0795 34.56 87.0359 34.2997 86.9488 34.2306C85.2548 32.8875 83.8401 31.1735 81.7576 30.3435C81.1013 30.0817 80.6357 30.1117 80.3379 30.5737C80.0015 31.0954 80.2122 31.5104 80.5752 31.9484C82.0644 33.7456 84.2485 34.5255 86.1313 35.8746V35.8746ZM65.0941 20.5643C66.0232 21.3607 66.9213 22.2162 67.9095 22.9521C68.772 23.5944 69.7257 24.1185 70.6588 24.6622C71.1058 24.9225 71.5353 24.7988 71.8457 24.3858C72.1371 23.9974 72.1476 23.5433 71.8152 23.2135C71.1239 22.5281 70.4145 21.8473 69.6375 21.2646C68.9082 20.7169 68.0807 20.3014 67.2987 19.8229C65.9121 18.9739 65.9131 18.9724 65.1031 20.4051C65.0941 20.4216 65.1 20.4466 65.0941 20.5643ZM67.9671 26.182C66.4958 26.2961 65.3509 26.3822 64.2071 26.4738C62.8414 26.584 63.0296 26.3462 63.0046 27.8485C62.9986 28.2059 63.1212 28.3967 63.5182 28.4012C64.0048 28.4072 64.4909 28.4642 64.977 28.5028C66.6815 28.6384 68.3856 28.8902 70.0791 28.3901C70.5151 28.2615 70.8115 28.0397 70.8375 27.5737C70.8655 27.0771 70.6503 26.6541 70.1632 26.5444C69.3372 26.3582 68.4907 26.2646 67.9671 26.182ZM89.2336 29.2116C87.3648 29.3808 85.7359 29.505 84.1139 29.6907C83.6969 29.7388 83.6048 30.1297 83.9152 30.406C85.1206 31.4793 86.3576 32.5176 87.7608 33.722C88.2639 32.1817 88.7184 30.789 89.2336 29.2116ZM63.0346 25.5212C63.1112 25.5688 63.1878 25.6163 63.2639 25.6639C64.8283 25.5347 66.3942 25.4221 67.956 25.2684C68.4937 25.2153 68.6438 24.8284 68.2624 24.4885C67.0615 23.4202 65.8295 22.3864 64.4423 21.1955C63.9402 22.7399 63.4877 24.1305 63.0346 25.5212V25.5212ZM87.6056 21.3327C86.3691 22.3915 85.1642 23.4047 83.9837 24.4454C83.5858 24.7963 83.6914 25.2083 84.2 25.2604C85.7824 25.4221 87.3698 25.5307 88.9527 25.6599C89.0614 24.7212 88.343 22.4155 87.6056 21.3327ZM78.3976 14.5786C76.8327 14.3128 75.3634 14.2597 73.8211 14.6106C74.4608 16.149 75.057 17.6002 75.6753 19.0414C75.7404 19.1931 75.9516 19.3954 76.0728 19.3818C76.242 19.3623 76.4668 19.1941 76.5363 19.0334C77.1576 17.5922 77.7503 16.1385 78.3976 14.5786ZM70.3539 39.3778C70.7724 37.6317 71.1383 36.1459 71.4738 34.6532C71.5188 34.4534 71.4714 34.085 71.3556 34.0304C71.1749 33.9453 70.8595 33.9939 70.6703 34.104C69.5855 34.7368 68.5202 35.4035 67.4499 36.0613C67.2067 36.211 66.9709 36.3722 66.5694 36.634C67.8654 37.5736 69.0389 38.4242 70.3539 39.3778ZM85.6628 36.6085C84.1524 35.6864 82.8674 34.8904 81.5664 34.1215C81.3716 34.0064 81.1003 34.0199 80.8645 33.9743C80.8225 34.2291 80.6993 34.5014 80.7509 34.7357C81.0522 36.1099 81.3927 37.475 81.7255 38.8422C81.7531 38.9548 81.8241 39.0569 81.9488 39.3188C83.1798 38.4202 84.3527 37.5642 85.6628 36.6085V36.6085ZM64.57 33.6204C65.851 32.5181 67.0825 31.4833 68.2804 30.4111C68.6298 30.0982 68.4777 29.7313 67.9821 29.6612C67.2682 29.56 66.5479 29.498 65.828 29.4484C64.9514 29.3888 64.0724 29.3593 63.1293 29.3132C63.3971 30.8671 63.8045 32.2523 64.57 33.6204ZM78.4361 40.4301C77.7918 38.8827 77.2387 37.5206 76.652 36.1735C76.5453 35.9287 76.3 35.744 76.1188 35.5317C75.9316 35.735 75.6738 35.9076 75.5681 36.1474C75.0345 37.3564 74.5384 38.5819 74.0343 39.8038C73.9663 39.9685 73.9252 40.1447 73.8361 40.4301C75.3955 40.4301 76.8452 40.4301 78.4361 40.4301ZM81.8542 15.5487C81.4342 17.2888 81.0653 18.7751 80.7274 20.2684C80.6818 20.4686 80.7281 20.8386 80.8435 20.8921C81.0262 20.9778 81.3431 20.9317 81.5323 20.8211C82.7463 20.1107 83.9417 19.3693 85.1391 18.6319C85.2558 18.5603 85.3474 18.4487 85.5762 18.243C84.3352 17.3444 83.1583 16.4929 81.8542 15.5487V15.5487ZM70.3554 15.5347C69.0283 16.5029 67.8539 17.3594 66.5393 18.3191C68.1187 19.2702 69.5074 20.1303 70.9226 20.9432C71.2941 21.1565 71.6034 20.8876 71.5028 20.4271C71.1639 18.8722 70.7799 17.3269 70.3554 15.5347ZM76.0808 30.0922C77.5841 30.1032 78.753 28.9293 78.7445 27.4175C78.7364 26.0048 77.5495 24.8244 76.1248 24.8123C74.6826 24.7998 73.4466 26.0128 73.4486 27.439C73.451 28.9147 74.609 30.0817 76.0808 30.0922V30.0922ZM78.363 29.7212C78.1372 30.0957 77.907 30.3099 77.92 30.5082C77.9305 30.6684 78.2403 30.9302 78.4081 30.9232C78.5767 30.9162 78.8636 30.6313 78.8621 30.4706C78.8605 30.2719 78.6148 30.0752 78.363 29.7212V29.7212ZM80.5151 26.0764C80.1827 25.8596 79.9589 25.6058 79.8098 25.6433C79.6095 25.6944 79.4664 25.9712 79.2986 26.1509C79.4879 26.3036 79.6656 26.5529 79.8698 26.577C80.024 26.595 80.2122 26.3252 80.5151 26.0764V26.0764ZM76.8212 23.4227C76.4903 23.1884 76.294 22.9411 76.1203 22.9561C75.9366 22.9721 75.7739 23.2369 75.6022 23.3932C75.7744 23.5703 75.9241 23.8442 76.1263 23.8917C76.273 23.9263 76.4898 23.6595 76.8212 23.4227V23.4227ZM73.8281 29.7373C73.6138 30.0791 73.3815 30.2859 73.4021 30.4636C73.4226 30.6448 73.6924 30.797 73.8531 30.9617C74.0228 30.7805 74.2926 30.6173 74.3292 30.4121C74.3562 30.2614 74.0784 30.0561 73.8281 29.7373V29.7373ZM73.1623 26.1314C72.8224 25.8846 72.6261 25.6323 72.4544 25.6484C72.2747 25.6649 72.0324 25.9167 71.9834 26.1084C71.9518 26.2315 72.2302 26.574 72.3518 26.5654C72.5756 26.5499 72.7863 26.3477 73.1623 26.1314V26.1314Z" fill="#87888A"/>
<path fill-rule="evenodd" clip-rule="evenodd" d="M76.0809 30.0924C74.6091 30.0819 73.4512 28.915 73.4487 27.4393C73.4468 26.0131 74.6827 24.8001 76.1249 24.8126C77.5496 24.8246 78.7365 26.005 78.7446 27.4177C78.7531 28.9295 77.5842 30.1034 76.0809 30.0924V30.0924ZM76.0703 29.6949C77.3108 29.7085 78.3506 28.6952 78.3811 27.4433C78.4087 26.2914 77.3069 25.2101 76.1079 25.2126C74.8604 25.2151 73.9088 26.1802 73.9002 27.4523C73.8918 28.7989 74.7443 29.6804 76.0703 29.6949V29.6949Z" fill="white"/>
<path fill-rule="evenodd" clip-rule="evenodd" d="M78.363 29.7217C78.6148 30.0756 78.8606 30.2723 78.8621 30.4711C78.8637 30.6318 78.5767 30.9166 78.408 30.9236C78.2403 30.9306 77.9305 30.6688 77.92 30.5086C77.907 30.3104 78.1372 30.0962 78.363 29.7217V29.7217Z" fill="white"/>
<path fill-rule="evenodd" clip-rule="evenodd" d="M80.5153 26.0764C80.2124 26.3252 80.0242 26.595 79.87 26.577C79.6658 26.553 79.4881 26.3037 79.2988 26.151C79.4665 25.9712 79.6097 25.6944 79.8099 25.6434C79.9591 25.6058 80.1829 25.8596 80.5153 26.0764V26.0764Z" fill="white"/>
<path fill-rule="evenodd" clip-rule="evenodd" d="M76.821 23.4228C76.4896 23.6596 76.2729 23.9264 76.1262 23.8918C75.924 23.8443 75.7743 23.5704 75.6021 23.3932C75.7738 23.237 75.9365 22.9722 76.1202 22.9562C76.2939 22.9412 76.4901 23.1885 76.821 23.4228V23.4228Z" fill="white"/>
<path fill-rule="evenodd" clip-rule="evenodd" d="M73.8282 29.7373C74.0784 30.0562 74.3563 30.2614 74.3293 30.4121C74.2927 30.6173 74.0229 30.7806 73.8532 30.9618C73.6925 30.7971 73.4227 30.6449 73.4021 30.4637C73.3816 30.286 73.6139 30.0792 73.8282 29.7373V29.7373Z" fill="white"/>
<path fill-rule="evenodd" clip-rule="evenodd" d="M73.1623 26.1317C72.7864 26.348 72.5756 26.5502 72.3519 26.5658C72.2302 26.5743 71.9519 26.2318 71.9834 26.1087C72.0325 25.917 72.2748 25.6652 72.4545 25.6487C72.6262 25.6326 72.8224 25.8849 73.1623 26.1317V26.1317Z" fill="white"/>
<path fill-rule="evenodd" clip-rule="evenodd" d="M76.0701 29.6948C74.744 29.6803 73.8915 28.7987 73.9 27.4521C73.9085 26.1801 74.8601 25.2149 76.1076 25.2124C77.3066 25.2099 78.4084 26.2912 78.3809 27.4431C78.3503 28.6951 77.3106 29.7083 76.0701 29.6948V29.6948Z" fill="black"/>
<path fill-rule="evenodd" clip-rule="evenodd" d="M121.813 48.1776C110.342 48.1764 101.053 38.8895 101.057 27.4272C101.06 16.0536 110.397 6.71787 121.752 6.73489C133.254 6.75242 142.522 15.9985 142.53 27.4627C142.538 38.8865 133.245 48.1791 121.813 48.1776V48.1776ZM121.843 11.7054C113.247 11.6773 106.127 18.7017 106.017 27.1448C105.904 35.8338 112.829 43.1435 121.594 43.2252C130.308 43.3057 137.44 36.2994 137.575 27.8097C137.717 18.9395 130.514 11.6628 121.843 11.7054V11.7054Z" fill="black"/>
<path fill-rule="evenodd" clip-rule="evenodd" d="M121.842 11.7053C130.514 11.6627 137.717 18.9394 137.575 27.8096C137.44 36.2992 130.308 43.3056 121.594 43.225C112.829 43.1434 105.904 35.8337 106.017 27.1447C106.127 18.7016 113.247 11.6772 121.842 11.7053V11.7053ZM121.804 42.8315C130.279 42.8145 137.165 35.9233 137.155 27.4712C137.144 19.001 130.282 12.0972 121.889 12.1137C113.295 12.1303 106.412 18.975 106.432 27.4837C106.452 35.9453 113.366 42.8491 121.804 42.8315Z" fill="white"/>
<path fill-rule="evenodd" clip-rule="evenodd" d="M121.804 42.8316C113.366 42.8491 106.452 35.9454 106.433 27.4837C106.413 18.975 113.295 12.1303 121.889 12.1138C130.282 12.0973 137.144 19.0011 137.155 27.4712C137.165 35.9233 130.279 42.8146 121.804 42.8316V42.8316ZM135.788 27.5623C135.877 19.9082 129.657 13.5816 121.932 13.4714C114.253 13.3618 107.908 19.6023 107.811 27.3606C107.716 35.0108 113.93 41.3278 121.667 41.447C129.334 41.5651 135.698 35.3081 135.788 27.5623V27.5623Z" fill="#3C3B3B"/>
<path fill-rule="evenodd" clip-rule="evenodd" d="M135.788 27.5625C135.698 35.3083 129.334 41.5653 121.667 41.4472C113.929 41.3281 107.716 35.011 107.811 27.3608C107.908 19.6025 114.252 13.362 121.932 13.4716C129.656 13.5818 135.877 19.9084 135.788 27.5625V27.5625ZM135.365 27.2767C135.296 19.8068 129.09 13.7229 121.582 13.9007C113.803 14.0844 108.019 20.2743 108.235 28.0952C108.436 35.3874 114.85 41.2735 122.337 41.0357C129.608 40.8044 135.579 34.4984 135.365 27.2767V27.2767Z" fill="white"/>
<path fill-rule="evenodd" clip-rule="evenodd" d="M135.365 27.2763C135.58 34.498 129.608 40.804 122.337 41.0353C114.85 41.2731 108.436 35.387 108.235 28.0948C108.019 20.2739 113.804 14.084 121.582 13.9003C129.09 13.7225 135.296 19.8064 135.365 27.2763ZM132.896 20.5047C132.626 20.1262 132.374 19.8119 132.165 19.4719C131.94 19.1065 131.71 19.13 131.381 19.3388C130.426 19.943 129.416 20.4667 128.502 21.1249C127.663 21.7286 126.903 22.4485 126.141 23.1529C125.769 23.4968 125.744 23.9628 126.046 24.3753C126.362 24.8084 126.778 24.8679 127.292 24.6637C129.517 23.7786 131.026 21.9579 132.896 20.5047V20.5047ZM118.616 40.1863C119.347 38.0182 120.623 36.1239 120.791 33.8286C120.85 33.0187 120.694 32.5852 120.127 32.439C119.478 32.2713 119.185 32.7028 118.88 33.1789C117.944 34.6341 117.728 36.3171 117.318 37.9396C117.18 38.4872 117.063 39.0409 116.929 39.6241C117.498 39.8138 117.999 39.9805 118.616 40.1863V40.1863ZM134.886 28.3436C134.886 27.871 134.899 27.451 134.882 27.032C134.867 26.6801 134.681 26.5069 134.303 26.5089C133.902 26.5104 133.5 26.4533 133.098 26.4278C131.445 26.3216 129.795 26.0118 128.139 26.4548C127.472 26.6335 127.019 26.98 127.033 27.486C127.051 28.1704 127.546 28.3281 128.098 28.4627C130.35 29.0119 132.568 28.4377 134.886 28.3436V28.3436ZM126.681 39.6181C126.327 38.1393 126.049 36.7196 125.632 35.342C125.371 34.4799 124.953 33.6489 124.49 32.873C124.336 32.6162 123.812 32.4445 123.473 32.467C123.016 32.4976 122.718 32.905 122.786 33.3861C122.91 34.2647 123.009 35.1653 123.29 35.9987C123.709 37.2443 124.275 38.4407 124.783 39.6556C124.854 39.8238 124.948 39.982 125.044 40.1693C125.598 39.983 126.097 39.8148 126.681 39.6181V39.6181ZM116.93 15.337C117.24 16.6486 117.485 17.9656 117.873 19.2392C118.161 20.1833 118.611 21.0819 119.033 21.9799C119.244 22.4285 119.662 22.6292 120.155 22.4736C120.671 22.3109 120.921 21.9089 120.81 21.3832C120.594 20.351 120.371 19.3163 120.066 18.308C119.839 17.5591 119.478 16.8513 119.178 16.1244C118.562 14.6317 118.562 14.6317 116.93 15.337V15.337ZM126.675 15.3875C125.194 14.547 125.072 14.5836 124.471 16.0083C124.215 16.6175 123.989 17.2403 123.706 17.8365C123.198 18.9093 122.888 20.0271 122.796 21.21C122.74 21.9204 122.948 22.3589 123.469 22.4861C124.078 22.6342 124.392 22.2743 124.688 21.7977C125.915 19.8199 126.029 17.5171 126.675 15.3875V15.3875ZM111.745 35.8561C112.501 35.3965 113.187 34.975 113.877 34.5605C115.134 33.8066 116.418 33.0958 117.359 31.9179C117.717 31.4703 117.9 31.0323 117.543 30.5387C117.177 30.0341 116.706 30.1097 116.176 30.3235C114.001 31.2005 112.55 33.0137 110.692 34.4144C111.065 34.925 111.395 35.377 111.745 35.8561V35.8561ZM131.827 35.8746C132.151 35.4376 132.456 35.0596 132.716 34.6526C132.775 34.56 132.731 34.2997 132.644 34.2306C130.951 32.8875 129.535 31.1735 127.453 30.3435C126.797 30.0817 126.331 30.1117 126.033 30.5737C125.697 31.0954 125.908 31.5104 126.271 31.9484C127.76 33.7456 129.944 34.5255 131.827 35.8746ZM110.789 20.5643C111.719 21.3607 112.617 22.2162 113.605 22.9521C114.467 23.5944 115.421 24.1185 116.354 24.6622C116.801 24.9225 117.231 24.7988 117.541 24.3858C117.833 23.9974 117.843 23.5433 117.51 23.2135C116.819 22.5281 116.11 21.8473 115.333 21.2646C114.603 20.7169 113.776 20.3014 112.994 19.8229C111.608 18.9739 111.608 18.9724 110.798 20.4051C110.789 20.4216 110.795 20.4466 110.789 20.5643ZM113.662 26.182C112.191 26.2961 111.047 26.3822 109.902 26.4738C108.537 26.584 108.725 26.3462 108.7 27.8485C108.694 28.2059 108.817 28.3967 109.214 28.4012C109.7 28.4072 110.187 28.4642 110.673 28.5028C112.377 28.6384 114.081 28.8902 115.774 28.3901C116.211 28.2615 116.507 28.0397 116.533 27.5737C116.561 27.0771 116.346 26.6541 115.859 26.5444C115.033 26.3582 114.186 26.2646 113.662 26.182ZM134.929 29.2116C133.061 29.3808 131.431 29.505 129.809 29.6907C129.393 29.7388 129.301 30.1297 129.61 30.406C130.816 31.4793 132.053 32.5176 133.457 33.722C133.959 32.1817 134.414 30.789 134.929 29.2116ZM108.73 25.5212C108.807 25.5688 108.883 25.6163 108.959 25.6639C110.524 25.5347 112.089 25.4221 113.651 25.2684C114.189 25.2153 114.339 24.8284 113.958 24.4885C112.757 23.4202 111.525 22.3864 110.138 21.1955C109.636 22.7399 109.183 24.1305 108.73 25.5212V25.5212ZM133.301 21.3327C132.065 22.3915 130.859 23.4047 129.679 24.4454C129.281 24.7963 129.387 25.2083 129.895 25.2604C131.478 25.4221 133.066 25.5307 134.648 25.6599C134.757 24.7212 134.038 22.4155 133.301 21.3327ZM124.093 14.5786C122.528 14.3128 121.059 14.2597 119.516 14.6106C120.157 16.149 120.752 17.6002 121.371 19.0414C121.436 19.1931 121.647 19.3954 121.769 19.3818C121.938 19.3623 122.162 19.1941 122.232 19.0334C122.853 17.5922 123.446 16.1385 124.093 14.5786V14.5786ZM116.049 39.3778C116.468 37.6317 116.834 36.1459 117.17 34.6532C117.214 34.4534 117.167 34.085 117.051 34.0304C116.87 33.9453 116.555 33.9939 116.366 34.104C115.281 34.7368 114.216 35.4035 113.145 36.0613C112.902 36.211 112.666 36.3722 112.265 36.634C113.561 37.5736 114.734 38.4242 116.049 39.3778ZM131.358 36.6085C129.848 35.6864 128.563 34.8904 127.262 34.1215C127.067 34.0064 126.796 34.0199 126.56 33.9743C126.518 34.2291 126.395 34.5014 126.446 34.7357C126.748 36.1099 127.088 37.475 127.421 38.8422C127.448 38.9548 127.52 39.0569 127.644 39.3188C128.875 38.4202 130.048 37.5642 131.358 36.6085V36.6085ZM110.265 33.6204C111.546 32.5181 112.778 31.4833 113.976 30.4111C114.326 30.0982 114.173 29.7313 113.678 29.6612C112.964 29.56 112.243 29.498 111.524 29.4484C110.647 29.3888 109.768 29.3593 108.825 29.3132C109.092 30.8671 109.5 32.2523 110.265 33.6204V33.6204ZM124.131 40.4301C123.488 38.8827 122.934 37.5206 122.347 36.1735C122.241 35.9287 121.996 35.744 121.815 35.5317C121.627 35.735 121.37 35.9076 121.263 36.1474C120.73 37.3564 120.234 38.5819 119.73 39.8038C119.662 39.9685 119.621 40.1447 119.532 40.4301C121.091 40.4301 122.54 40.4301 124.131 40.4301V40.4301ZM127.55 15.5487C127.13 17.2888 126.761 18.7751 126.423 20.2684C126.378 20.4686 126.424 20.8386 126.539 20.8921C126.722 20.9778 127.038 20.9317 127.228 20.8211C128.442 20.1107 129.637 19.3693 130.835 18.6319C130.951 18.5603 131.043 18.4487 131.271 18.243C130.03 17.3444 128.854 16.4929 127.55 15.5487V15.5487ZM116.051 15.5347C114.724 16.5029 113.55 17.3594 112.235 18.3191C113.815 19.2702 115.203 20.1303 116.618 20.9432C116.989 21.1565 117.299 20.8876 117.199 20.4271C116.859 18.8722 116.475 17.3269 116.051 15.5347V15.5347ZM121.776 30.0922C123.279 30.1032 124.448 28.9293 124.44 27.4175C124.432 26.0048 123.245 24.8244 121.82 24.8123C120.378 24.7998 119.142 26.0128 119.144 27.439C119.146 28.9147 120.304 30.0817 121.776 30.0922V30.0922ZM124.059 29.7212C123.833 30.0957 123.602 30.3099 123.615 30.5082C123.626 30.6684 123.936 30.9302 124.103 30.9232C124.272 30.9162 124.559 30.6313 124.558 30.4706C124.556 30.2719 124.31 30.0752 124.059 29.7212ZM126.21 26.0764C125.878 25.8596 125.655 25.6058 125.505 25.6433C125.305 25.6944 125.162 25.9712 124.994 26.1509C125.183 26.3036 125.361 26.5529 125.566 26.577C125.719 26.595 125.908 26.3252 126.21 26.0764ZM122.516 23.4227C122.186 23.1884 121.989 22.9411 121.816 22.9561C121.632 22.9721 121.469 23.2369 121.298 23.3932C121.47 23.5703 121.619 23.8442 121.822 23.8917C121.968 23.9263 122.185 23.6595 122.516 23.4227V23.4227ZM119.524 29.7373C119.31 30.0791 119.077 30.2859 119.097 30.4636C119.118 30.6448 119.388 30.797 119.549 30.9617C119.719 30.7805 119.988 30.6173 120.025 30.4121C120.052 30.2614 119.774 30.0561 119.524 29.7373V29.7373ZM118.858 26.1314C118.518 25.8846 118.321 25.6323 118.15 25.6484C117.97 25.6649 117.728 25.9167 117.679 26.1084C117.648 26.2315 117.925 26.574 118.047 26.5654C118.271 26.5499 118.482 26.3477 118.858 26.1314V26.1314Z" fill="#87888A"/>
<path fill-rule="evenodd" clip-rule="evenodd" d="M121.776 30.0924C120.304 30.0819 119.147 28.915 119.145 27.4393C119.142 26.0131 120.378 24.8001 121.82 24.8126C123.245 24.8246 124.432 26.005 124.44 27.4177C124.448 28.9295 123.28 30.1034 121.776 30.0924V30.0924ZM121.766 29.6949C123.006 29.7085 124.046 28.6952 124.076 27.4433C124.105 26.2914 123.002 25.2101 121.804 25.2126C120.556 25.2151 119.604 26.1802 119.596 27.4523C119.587 28.7989 120.44 29.6804 121.766 29.6949Z" fill="white"/>
<path fill-rule="evenodd" clip-rule="evenodd" d="M124.059 29.7217C124.31 30.0756 124.556 30.2723 124.558 30.4711C124.559 30.6318 124.272 30.9166 124.103 30.9236C123.936 30.9306 123.626 30.6688 123.615 30.5086C123.602 30.3104 123.833 30.0962 124.059 29.7217Z" fill="white"/>
<path fill-rule="evenodd" clip-rule="evenodd" d="M126.21 26.0764C125.907 26.3252 125.719 26.595 125.565 26.577C125.361 26.553 125.183 26.3037 124.994 26.151C125.161 25.9712 125.305 25.6944 125.505 25.6434C125.654 25.6058 125.878 25.8596 126.21 26.0764Z" fill="white"/>
<path fill-rule="evenodd" clip-rule="evenodd" d="M122.516 23.4228C122.185 23.6596 121.968 23.9264 121.822 23.8918C121.619 23.8443 121.47 23.5704 121.297 23.3932C121.469 23.237 121.632 22.9722 121.816 22.9562C121.989 22.9412 122.185 23.1885 122.516 23.4228V23.4228Z" fill="white"/>
<path fill-rule="evenodd" clip-rule="evenodd" d="M119.524 29.7373C119.774 30.0562 120.052 30.2614 120.025 30.4121C119.988 30.6173 119.719 30.7806 119.549 30.9618C119.388 30.7971 119.118 30.6449 119.097 30.4637C119.077 30.286 119.31 30.0792 119.524 29.7373V29.7373Z" fill="white"/>
<path fill-rule="evenodd" clip-rule="evenodd" d="M118.858 26.1317C118.482 26.348 118.271 26.5502 118.047 26.5658C117.925 26.5743 117.648 26.2318 117.679 26.1087C117.728 25.917 117.97 25.6652 118.15 25.6487C118.321 25.6326 118.518 25.8849 118.858 26.1317V26.1317Z" fill="white"/>
<path fill-rule="evenodd" clip-rule="evenodd" d="M121.765 29.6948C120.439 29.6803 119.587 28.7987 119.596 27.4521C119.604 26.1801 120.556 25.2149 121.803 25.2124C123.002 25.2099 124.104 26.2912 124.076 27.4431C124.046 28.6951 123.006 29.7083 121.765 29.6948Z" fill="black"/>
<path d="M0.294434 55.1567H400" stroke="#3C3B3B" stroke-width="2.0001"/>
<path d="M0 1H399.706" stroke="#3C3B3B" stroke-width="2.0001"/>
</svg>
