<svg width="400" height="62" viewBox="0 0 400 62" fill="none" xmlns="http://www.w3.org/2000/svg">
<path fill-rule="evenodd" clip-rule="evenodd" d="M50.8642 28.3458H37.4793V33.0216H45.6791V46.4479C44.4732 47.116 42.1219 47.6503 38.6852 47.6503C29.159 47.6503 23.0091 40.9038 23.0091 29.4814C23.0091 18.1925 29.4604 11.3791 39.3484 11.3791C43.4483 11.3791 46.1614 12.1807 48.332 13.3162L49.6584 8.57367C47.9099 7.63848 44.1718 6.50293 39.469 6.50293C25.8428 6.50293 17.4622 16.3222 17.4622 29.7485C17.4622 36.7623 19.6327 42.7741 23.1296 46.5147C27.109 50.723 32.1735 52.4597 38.3234 52.4597C43.81 52.4597 48.5129 50.9903 50.8642 49.9882V28.3458V28.3458ZM148.297 51.8586C150.95 52.1926 154.025 52.393 157.823 52.393C165.722 52.393 171.992 50.1218 175.851 45.9135C179.589 41.7721 181.699 35.7603 181.699 28.4126C181.699 21.1317 179.589 15.9213 175.911 12.2475C172.354 8.64043 166.988 6.63645 159.451 6.63645C155.291 6.63645 151.493 7.03728 148.297 7.63848V51.8586V51.8586ZM153.542 11.8468C154.929 11.5127 156.979 11.2456 159.692 11.2456C170.786 11.2456 176.213 17.9921 176.152 28.6129C176.152 40.7702 170.123 47.717 158.848 47.717C156.798 47.717 154.869 47.6503 153.542 47.4499V11.8468V11.8468ZM217.875 51.9922L221.733 32.6208C222.698 28.0785 223.361 23.8035 224.085 18.7269H224.206C224.688 23.8704 225.351 28.0785 226.135 32.6208L229.572 51.9922H239.52L250.011 6.97043H240.665L237.349 25.3398C236.505 30.7505 235.601 36.0276 234.998 41.0373H234.877C234.274 36.0276 233.611 31.218 232.707 25.941L229.451 6.97043H219.683L216.247 25.3398C215.222 30.9509 214.257 36.3615 213.594 41.2377H213.473C212.81 36.6955 211.966 30.8841 211.062 25.4735L207.987 6.97043H198.159L207.806 51.9922H217.875ZM256.04 6.97043V51.9922H265.205V33.1552H280.338V51.9922H289.502V6.97043H280.338V24.2711H265.205V6.97043H256.04ZM322.905 24.6719H307.952V15.3201H323.809V6.97043H298.787V51.9922H324.653V43.6424H307.952V32.9549H322.905V24.6719V24.6719ZM356.307 24.6719H341.354V15.3201H357.211V6.97043H332.19V51.9922H358.055V43.6424H341.354V32.9549H356.307V24.6719V24.6719ZM365.592 51.9922H390.915V43.442H374.756V6.97043H365.592V51.9922Z" fill="#1B1918"/>
<path fill-rule="evenodd" clip-rule="evenodd" d="M76.1172 53.2681C64.647 53.2667 55.3578 42.9778 55.3614 30.2789C55.3649 17.6781 64.7016 7.33517 76.0567 7.35403C87.5585 7.37345 96.8266 17.6171 96.8351 30.3182C96.8431 42.9745 87.5495 53.2697 76.1172 53.2681V53.2681ZM76.1473 12.8608C67.551 12.8297 60.431 20.612 60.3218 29.9661C60.2092 39.5925 67.1335 47.6909 75.899 47.7813C84.6124 47.8706 91.745 40.1083 91.8801 30.7026C92.0218 20.8755 84.8187 12.8136 76.1473 12.8608V12.8608Z" fill="black"/>
<path fill-rule="evenodd" clip-rule="evenodd" d="M76.1473 12.8606C84.8187 12.8134 92.0218 20.8752 91.8802 30.7024C91.745 40.108 84.6125 47.8704 75.899 47.7811C67.1335 47.6906 60.2092 39.5922 60.3218 29.9658C60.431 20.6118 67.551 12.8295 76.1473 12.8606V12.8606ZM76.1088 47.3451C84.5839 47.3263 91.4702 39.6915 91.4596 30.3275C91.4486 20.9434 84.5859 13.2948 76.1928 13.3131C67.6001 13.3314 60.7173 20.9146 60.7368 30.3413C60.7568 39.7159 67.6711 47.3645 76.1088 47.3451V47.3451Z" fill="white"/>
<path fill-rule="evenodd" clip-rule="evenodd" d="M76.1087 47.345C67.6711 47.3645 60.7568 39.7158 60.7368 30.3413C60.7173 20.9145 67.6 13.3314 76.1928 13.313C84.5859 13.2947 91.4486 20.9434 91.4596 30.3274C91.4702 39.6914 84.5839 47.3262 76.1087 47.345V47.345ZM90.0925 30.4283C90.1816 21.9483 83.9612 14.9391 76.2369 14.8171C68.5572 14.6957 62.2126 21.6094 62.116 30.2048C62.0208 38.6804 68.2343 45.679 75.9711 45.811C83.6388 45.9419 90.0024 39.0098 90.0925 30.4283V30.4283Z" fill="#3C3B3B"/>
<path fill-rule="evenodd" clip-rule="evenodd" d="M90.0925 30.4282C90.0024 39.0097 83.6388 45.9418 75.9711 45.8109C68.2343 45.6789 62.0208 38.6803 62.116 30.2047C62.2126 21.6093 68.5572 14.6956 76.2369 14.817C83.9612 14.939 90.1816 21.9482 90.0925 30.4282V30.4282ZM89.6695 30.1115C89.6004 21.8356 83.395 15.0954 75.8865 15.2923C68.1076 15.4959 62.3237 22.3536 62.5395 31.0183C62.7402 39.0973 69.1549 45.6184 76.6414 45.355C83.9131 45.0988 89.8843 38.1124 89.6695 30.1115V30.1115Z" fill="white"/>
<path fill-rule="evenodd" clip-rule="evenodd" d="M89.6695 30.1115C89.8843 38.1123 83.9131 45.0987 76.6414 45.3549C69.1549 45.6184 62.7402 39.0973 62.5395 31.0182C62.3237 22.3536 68.1076 15.4958 75.8865 15.2923C83.395 15.0954 89.6004 21.8356 89.6695 30.1115ZM87.2011 22.6093C86.9302 22.19 86.6789 21.8417 86.4697 21.4651C86.2449 21.0602 86.0146 21.0863 85.6847 21.3176C84.7306 21.987 83.7204 22.5671 82.8063 23.2964C81.9668 23.9653 81.2074 24.7628 80.446 25.5432C80.074 25.9242 80.049 26.4405 80.3499 26.8975C80.6662 27.3773 81.0827 27.4432 81.5963 27.217C83.822 26.2364 85.3303 24.2193 87.2011 22.6093V22.6093ZM72.9209 44.4143C73.6518 42.0123 74.9278 39.9137 75.0955 37.3708C75.1546 36.4734 74.9989 35.9931 74.4312 35.8312C73.7825 35.6454 73.4896 36.1235 73.1838 36.6509C72.2486 38.2632 72.0324 40.1277 71.6229 41.9252C71.4847 42.532 71.3676 43.1454 71.2329 43.7915C71.8031 44.0017 72.3032 44.1864 72.9209 44.4143V44.4143ZM89.1904 31.2939C89.1904 30.7704 89.204 30.305 89.1859 29.8408C89.1709 29.4509 88.9852 29.259 88.6077 29.2613C88.2062 29.2629 87.8048 29.1997 87.4028 29.1714C85.7498 29.0538 84.0998 28.7105 82.4434 29.2013C81.7765 29.3994 81.3235 29.7832 81.337 30.3439C81.3556 31.102 81.8506 31.2767 82.4023 31.4259C84.654 32.0343 86.8727 31.3982 89.1904 31.2939ZM80.9856 43.7848C80.6307 42.1465 80.3538 40.5736 79.9363 39.0474C79.675 38.0923 79.258 37.1717 78.7945 36.312C78.6408 36.0275 78.1167 35.8373 77.7778 35.8622C77.3202 35.8961 77.0228 36.3475 77.0909 36.8805C77.2151 37.8538 77.3137 38.8516 77.5945 39.775C78.0135 41.1549 78.5797 42.4804 79.0878 43.8264C79.1579 44.0128 79.2525 44.1881 79.3486 44.3955C79.9028 44.1892 80.4019 44.0028 80.9856 43.7848ZM71.2349 16.884C71.5443 18.3371 71.7901 19.7963 72.1776 21.2072C72.4654 22.2532 72.9159 23.2487 73.3379 24.2437C73.5487 24.7406 73.9662 24.963 74.4598 24.7906C74.9759 24.6103 75.2252 24.1649 75.1146 23.5826C74.8978 22.439 74.6755 21.2926 74.3702 20.1756C74.1439 19.3459 73.782 18.5617 73.4821 17.7564C72.8664 16.1026 72.8669 16.1026 71.2349 16.884V16.884ZM80.9796 16.94C79.4988 16.0088 79.3757 16.0493 78.776 17.6278C78.5192 18.3027 78.2929 18.9926 78.0105 19.6532C77.5029 20.8417 77.193 22.0802 77.0999 23.3907C77.0444 24.1777 77.2516 24.6635 77.7733 24.8044C78.3825 24.9686 78.6963 24.5698 78.9922 24.0418C80.2192 21.8506 80.3333 19.2993 80.9796 16.94V16.94ZM66.0492 39.6169C66.8051 39.1078 67.4914 38.6408 68.1817 38.1816C69.4388 37.3464 70.7218 36.5588 71.6639 35.2538C72.0218 34.758 72.2051 34.2727 71.8471 33.7259C71.4817 33.1668 71.0106 33.2506 70.481 33.4874C68.3054 34.4591 66.8542 36.4679 64.9964 38.0197C65.3694 38.5854 65.6993 39.0862 66.0492 39.6169V39.6169ZM86.1313 39.6375C86.4557 39.1533 86.7605 38.7346 87.0198 38.2837C87.0794 38.1811 87.0358 37.8927 86.9487 37.8161C85.2547 36.3281 83.84 34.4291 81.7575 33.5096C81.1012 33.2195 80.6357 33.2528 80.3378 33.7647C80.0014 34.3426 80.2122 34.8024 80.5751 35.2876C82.0644 37.2787 84.2485 38.1428 86.1313 39.6375V39.6375ZM65.094 22.6753C66.0232 23.5577 66.9213 24.5055 67.9094 25.3207C68.772 26.0323 69.7256 26.613 70.6587 27.2153C71.1057 27.5037 71.5353 27.3667 71.8456 26.9091C72.137 26.4788 72.1475 25.9758 71.8151 25.6103C71.1238 24.851 70.4144 24.0967 69.6375 23.4512C68.9081 22.8444 68.0806 22.3841 67.2987 21.8539C65.912 20.9133 65.913 20.9116 65.1031 22.4989C65.094 22.5172 65.0999 22.5449 65.094 22.6753ZM67.967 28.8991C66.4957 29.0256 65.3509 29.1209 64.207 29.2224C62.8414 29.3444 63.0296 29.081 63.0045 30.7454C62.9985 31.1414 63.1212 31.3527 63.5182 31.3577C64.0047 31.3643 64.4908 31.4276 64.9769 31.4703C66.6814 31.6206 68.3855 31.8995 70.079 31.3455C70.515 31.203 70.8114 30.9573 70.8374 30.4409C70.8655 29.8907 70.6502 29.4221 70.1631 29.3007C69.3371 29.0943 68.4906 28.9906 67.967 28.8991ZM89.2335 32.2556C87.3647 32.4431 85.7358 32.5806 84.1138 32.7864C83.6968 32.8396 83.6047 33.2728 83.9151 33.5789C85.1206 34.768 86.3575 35.9182 87.7607 37.2526C88.2638 35.5461 88.7184 34.0032 89.2335 32.2556ZM63.0346 28.167C63.1112 28.2197 63.1878 28.2724 63.2639 28.3251C64.8282 28.182 66.3941 28.0572 67.956 27.8869C68.4936 27.8281 68.6438 27.3994 68.2623 27.0229C67.0614 25.8393 65.8294 24.694 64.4423 23.3746C63.9402 25.0856 63.4876 26.6263 63.0346 28.167V28.167ZM87.6055 23.5266C86.369 24.6996 85.1641 25.8221 83.9837 26.9752C83.5857 27.3639 83.6913 27.8204 84.2 27.8781C85.7824 28.0572 87.3698 28.1776 88.9527 28.3206C89.0613 27.2808 88.3429 24.7262 87.6055 23.5266ZM78.3975 16.0438C76.8326 15.7493 75.3633 15.6905 73.821 16.0793C74.4608 17.7836 75.057 19.3914 75.6752 20.9881C75.7403 21.1562 75.9516 21.3803 76.0727 21.3653C76.2419 21.3436 76.4667 21.1573 76.5363 20.9793C77.1575 19.3825 77.7502 17.772 78.3975 16.0438ZM70.3538 43.5187C70.7723 41.5842 71.1383 39.9381 71.4737 38.2842C71.5188 38.0629 71.4713 37.6547 71.3556 37.5943C71.1749 37.5 70.8595 37.5538 70.6702 37.6758C69.5854 38.3769 68.5201 39.1156 67.4499 39.8443C67.2066 40.0101 66.9708 40.1887 66.5693 40.4788C67.8654 41.5198 69.0388 42.4621 70.3538 43.5187ZM85.6627 40.4505C84.1524 39.4289 82.8673 38.5471 81.5663 37.6952C81.3715 37.5677 81.1002 37.5826 80.8645 37.5322C80.8224 37.8145 80.6993 38.1162 80.7508 38.3757C81.0522 39.8982 81.3926 41.4106 81.7255 42.9252C81.753 43.05 81.8241 43.1632 81.9488 43.4532C83.1797 42.4577 84.3526 41.5093 85.6627 40.4505V40.4505ZM64.5699 37.1401C65.8509 35.9188 67.0824 34.7724 68.2804 33.5844C68.6298 33.2378 68.4776 32.8313 67.982 32.7536C67.2682 32.6416 66.5478 32.5728 65.8279 32.5179C64.9514 32.4519 64.0723 32.4192 63.1292 32.3682C63.397 34.0897 63.8045 35.6243 64.5699 37.1401ZM78.436 44.6844C77.7918 42.9701 77.2386 41.461 76.6519 39.9686C76.5453 39.6974 76.3 39.4927 76.1188 39.2576C75.9315 39.4828 75.6737 39.6741 75.5681 39.9397C75.0345 41.2791 74.5384 42.6368 74.0343 43.9906C73.9662 44.1731 73.9251 44.3683 73.836 44.6844C75.3954 44.6844 76.8452 44.6844 78.436 44.6844ZM81.8541 17.1186C81.4341 19.0465 81.0652 20.6931 80.7273 22.3475C80.6817 22.5693 80.7281 22.9792 80.8434 23.0385C81.0261 23.1334 81.343 23.0824 81.5323 22.9598C82.7462 22.1728 83.9416 21.3514 85.1391 20.5345C85.2557 20.4551 85.3473 20.3315 85.5761 20.1035C84.3351 19.108 83.1582 18.1646 81.8541 17.1186V17.1186ZM70.3553 17.1031C69.0282 18.1757 67.8539 19.1246 66.5393 20.1878C68.1187 21.2416 69.5073 22.1944 70.9225 23.0951C71.294 23.3314 71.6033 23.0335 71.5027 22.5233C71.1638 20.8007 70.7798 19.0886 70.3553 17.1031ZM76.0807 33.2312C77.584 33.2434 78.7529 31.9428 78.7444 30.2679C78.7364 28.7028 77.5495 27.395 76.1248 27.3817C74.6826 27.3678 73.4466 28.7117 73.4486 30.2917C73.4509 31.9267 74.6089 33.2195 76.0807 33.2312V33.2312ZM78.3629 32.8202C78.1372 33.2351 77.9069 33.4724 77.9199 33.6921C77.9304 33.8695 78.2403 34.1596 78.408 34.1518C78.5767 34.144 78.8635 33.8285 78.862 33.6505C78.8605 33.4303 78.6148 33.2123 78.3629 32.8202V32.8202ZM80.515 28.7821C80.1826 28.5419 79.9589 28.2607 79.8097 28.3023C79.6094 28.3589 79.4663 28.6656 79.2986 28.8647C79.4878 29.0339 79.6655 29.3101 79.8698 29.3367C80.024 29.3567 80.2122 29.0577 80.515 28.7821V28.7821ZM76.8211 25.8421C76.4902 25.5825 76.294 25.3085 76.1203 25.3252C75.9366 25.3429 75.7739 25.6363 75.6021 25.8094C75.7743 26.0057 75.924 26.3091 76.1263 26.3618C76.273 26.4 76.4897 26.1044 76.8211 25.8421V25.8421ZM73.828 32.8379C73.6138 33.2167 73.3815 33.4458 73.402 33.6427C73.4226 33.8434 73.6923 34.012 73.8531 34.1945C74.0227 33.9938 74.2926 33.8129 74.3291 33.5856C74.3561 33.4186 74.0783 33.1912 73.828 32.8379V32.8379ZM73.1622 28.8431C72.8223 28.5696 72.6261 28.2901 72.4544 28.3079C72.2747 28.3262 72.0324 28.6052 71.9833 28.8176C71.9518 28.954 72.2301 29.3334 72.3517 29.3239C72.5755 29.3067 72.7863 29.0827 73.1622 28.8431V28.8431Z" fill="#87888A"/>
<path fill-rule="evenodd" clip-rule="evenodd" d="M76.0807 33.2309C74.6089 33.2193 73.451 31.9265 73.4485 30.2915C73.4466 28.7114 74.6825 27.3676 76.1247 27.3815C77.5494 27.3948 78.7364 28.7025 78.7444 30.2676C78.7529 31.9426 77.584 33.2431 76.0807 33.2309V33.2309ZM76.0702 32.7906C77.3107 32.8056 78.3504 31.683 78.381 30.2959C78.4085 29.0198 77.3067 27.8218 76.1077 27.8246C74.8602 27.8273 73.9086 28.8967 73.9001 30.3059C73.8916 31.7978 74.7441 32.7745 76.0702 32.7906V32.7906Z" fill="white"/>
<path fill-rule="evenodd" clip-rule="evenodd" d="M78.3629 32.8208C78.6147 33.2129 78.8605 33.4309 78.862 33.6511C78.8636 33.8291 78.5767 34.1447 78.408 34.1524C78.2403 34.1602 77.9304 33.8701 77.9199 33.6927C77.9069 33.473 78.1372 33.2357 78.3629 32.8208V32.8208Z" fill="white"/>
<path fill-rule="evenodd" clip-rule="evenodd" d="M80.515 28.7822C80.2122 29.0578 80.024 29.3568 79.8698 29.3368C79.6655 29.3102 79.4878 29.034 79.2986 28.8648C79.4663 28.6657 79.6094 28.359 79.8097 28.3025C79.9589 28.2609 80.1826 28.542 80.515 28.7822V28.7822Z" fill="white"/>
<path fill-rule="evenodd" clip-rule="evenodd" d="M76.8211 25.8418C76.4897 26.1042 76.2729 26.3998 76.1262 26.3615C75.924 26.3088 75.7743 26.0054 75.6021 25.8091C75.7738 25.636 75.9365 25.3427 76.1202 25.3249C76.2939 25.3083 76.4902 25.5823 76.8211 25.8418V25.8418Z" fill="white"/>
<path fill-rule="evenodd" clip-rule="evenodd" d="M73.828 32.8384C74.0783 33.1917 74.3561 33.4191 74.3291 33.586C74.2925 33.8134 74.0227 33.9942 73.853 34.195C73.6923 34.0125 73.4225 33.8439 73.402 33.6431C73.3815 33.4462 73.6137 33.2172 73.828 32.8384V32.8384Z" fill="white"/>
<path fill-rule="evenodd" clip-rule="evenodd" d="M73.1622 28.8431C72.7862 29.0827 72.5755 29.3068 72.3517 29.324C72.2301 29.3334 71.9517 28.954 71.9833 28.8176C72.0323 28.6052 72.2746 28.3262 72.4543 28.3079C72.626 28.2902 72.8223 28.5697 73.1622 28.8431V28.8431Z" fill="white"/>
<path fill-rule="evenodd" clip-rule="evenodd" d="M76.0702 32.7907C74.7441 32.7746 73.8916 31.7979 73.9001 30.306C73.9086 28.8968 74.8602 27.8275 76.1077 27.8247C77.3067 27.822 78.4085 29.0199 78.381 30.2961C78.3504 31.6831 77.3107 32.8057 76.0702 32.7907V32.7907Z" fill="black"/>
<path fill-rule="evenodd" clip-rule="evenodd" d="M121.813 53.2681C110.342 53.2667 101.053 42.9778 101.057 30.2789C101.06 17.6781 110.397 7.33517 121.752 7.35403C133.254 7.37345 142.522 17.6171 142.53 30.3182C142.538 42.9745 133.245 53.2697 121.813 53.2681V53.2681ZM121.843 12.8608C113.247 12.8297 106.127 20.612 106.017 29.9661C105.904 39.5925 112.829 47.6909 121.594 47.7813C130.308 47.8706 137.44 40.1083 137.575 30.7026C137.717 20.8755 130.514 12.8136 121.843 12.8608V12.8608Z" fill="black"/>
<path fill-rule="evenodd" clip-rule="evenodd" d="M121.843 12.8606C130.514 12.8134 137.717 20.8752 137.575 30.7024C137.44 40.108 130.308 47.8704 121.594 47.7811C112.829 47.6906 105.904 39.5922 106.017 29.9658C106.127 20.6118 113.247 12.8295 121.843 12.8606V12.8606ZM121.804 47.3451C130.279 47.3263 137.165 39.6915 137.155 30.3275C137.144 20.9434 130.282 13.2948 121.889 13.3131C113.295 13.3314 106.413 20.9146 106.433 30.3413C106.452 39.7159 113.366 47.3645 121.804 47.3451Z" fill="white"/>
<path fill-rule="evenodd" clip-rule="evenodd" d="M121.804 47.345C113.366 47.3645 106.452 39.7158 106.433 30.3413C106.413 20.9145 113.295 13.3314 121.889 13.313C130.282 13.2947 137.144 20.9434 137.155 30.3274C137.165 39.6914 130.279 47.3262 121.804 47.345V47.345ZM135.788 30.4283C135.877 21.9483 129.656 14.9391 121.932 14.8171C114.252 14.6957 107.908 21.6094 107.811 30.2048C107.716 38.6804 113.93 45.679 121.667 45.811C129.334 45.9419 135.698 39.0098 135.788 30.4283V30.4283Z" fill="#3C3B3B"/>
<path fill-rule="evenodd" clip-rule="evenodd" d="M135.788 30.4282C135.698 39.0097 129.334 45.9418 121.667 45.8109C113.93 45.6789 107.716 38.6803 107.811 30.2047C107.908 21.6093 114.252 14.6956 121.932 14.817C129.656 14.939 135.877 21.9482 135.788 30.4282V30.4282ZM135.365 30.1115C135.296 21.8356 129.09 15.0954 121.582 15.2923C113.803 15.4959 108.019 22.3536 108.235 31.0183C108.436 39.0973 114.85 45.6184 122.337 45.355C129.608 45.0988 135.58 38.1124 135.365 30.1115V30.1115Z" fill="white"/>
<path fill-rule="evenodd" clip-rule="evenodd" d="M135.365 30.1115C135.58 38.1123 129.608 45.0987 122.337 45.3549C114.85 45.6184 108.436 39.0973 108.235 31.0182C108.019 22.3536 113.803 15.4958 121.582 15.2923C129.09 15.0954 135.296 21.8356 135.365 30.1115ZM132.896 22.6093C132.625 22.19 132.374 21.8417 132.165 21.4651C131.94 21.0602 131.71 21.0863 131.38 21.3176C130.426 21.987 129.416 22.5671 128.502 23.2964C127.663 23.9653 126.903 24.7628 126.141 25.5432C125.769 25.9242 125.744 26.4405 126.046 26.8975C126.361 27.3773 126.778 27.4432 127.292 27.217C129.517 26.2364 131.026 24.2193 132.896 22.6093V22.6093ZM118.616 44.4143C119.347 42.0123 120.623 39.9137 120.791 37.3708C120.85 36.4734 120.694 35.9931 120.127 35.8312C119.478 35.6454 119.185 36.1235 118.879 36.6509C117.944 38.2632 117.728 40.1277 117.318 41.9252C117.18 42.532 117.063 43.1454 116.929 43.7915C117.498 44.0017 117.998 44.1864 118.616 44.4143V44.4143ZM134.886 31.2939C134.886 30.7704 134.899 30.305 134.882 29.8408C134.867 29.4509 134.68 29.259 134.303 29.2613C133.901 29.2629 133.5 29.1997 133.098 29.1714C131.445 29.0538 129.795 28.7105 128.139 29.2013C127.472 29.3994 127.019 29.7832 127.033 30.3439C127.051 31.102 127.546 31.2767 128.098 31.4259C130.35 32.0343 132.568 31.3982 134.886 31.2939V31.2939ZM126.681 43.7848C126.326 42.1465 126.049 40.5736 125.632 39.0474C125.371 38.0923 124.953 37.1717 124.49 36.312C124.336 36.0275 123.812 35.8373 123.473 35.8622C123.016 35.8961 122.718 36.3475 122.786 36.8805C122.91 37.8538 123.009 38.8516 123.29 39.775C123.709 41.1549 124.275 42.4804 124.783 43.8264C124.854 44.0128 124.948 44.1881 125.044 44.3955C125.598 44.1892 126.097 44.0028 126.681 43.7848V43.7848ZM116.93 16.884C117.24 18.3371 117.485 19.7963 117.873 21.2072C118.161 22.2532 118.611 23.2487 119.033 24.2437C119.244 24.7406 119.661 24.963 120.155 24.7906C120.671 24.6103 120.92 24.1649 120.81 23.5826C120.594 22.439 120.371 21.2926 120.066 20.1756C119.839 19.3459 119.478 18.5617 119.178 17.7564C118.562 16.1026 118.562 16.1026 116.93 16.884V16.884ZM126.675 16.94C125.194 16.0088 125.071 16.0493 124.471 17.6278C124.215 18.3027 123.989 18.9926 123.706 19.6532C123.198 20.8417 122.888 22.0802 122.796 23.3907C122.74 24.1777 122.947 24.6635 123.469 24.8044C124.078 24.9686 124.392 24.5698 124.687 24.0418C125.914 21.8506 126.029 19.2993 126.675 16.94V16.94ZM111.744 39.6169C112.501 39.1078 113.187 38.6408 113.877 38.1816C115.134 37.3464 116.418 36.5588 117.359 35.2538C117.717 34.758 117.9 34.2727 117.542 33.7259C117.177 33.1668 116.706 33.2506 116.176 33.4874C114.001 34.4591 112.549 36.4679 110.692 38.0197C111.065 38.5854 111.395 39.0862 111.744 39.6169V39.6169ZM131.827 39.6375C132.151 39.1533 132.456 38.7346 132.716 38.2837C132.775 38.1811 132.731 37.8927 132.644 37.8161C130.95 36.3281 129.535 34.4291 127.453 33.5096C126.796 33.2195 126.331 33.2528 126.033 33.7647C125.697 34.3426 125.908 34.8024 126.271 35.2876C127.76 37.2787 129.944 38.1428 131.827 39.6375ZM110.789 22.6753C111.718 23.5577 112.617 24.5055 113.605 25.3207C114.467 26.0323 115.421 26.613 116.354 27.2153C116.801 27.5037 117.231 27.3667 117.541 26.9091C117.833 26.4788 117.843 25.9758 117.51 25.6103C116.819 24.851 116.11 24.0967 115.333 23.4512C114.603 22.8444 113.776 22.3841 112.994 21.8539C111.608 20.9133 111.608 20.9116 110.798 22.4989C110.789 22.5172 110.795 22.5449 110.789 22.6753ZM113.662 28.8991C112.191 29.0256 111.047 29.1209 109.902 29.2224C108.537 29.3444 108.725 29.081 108.7 30.7454C108.694 31.1414 108.816 31.3527 109.213 31.3577C109.7 31.3643 110.187 31.4276 110.673 31.4703C112.377 31.6206 114.081 31.8995 115.774 31.3455C116.211 31.203 116.507 30.9573 116.533 30.4409C116.561 29.8907 116.345 29.4221 115.859 29.3007C115.033 29.0943 114.186 28.9906 113.662 28.8991ZM134.929 32.2556C133.061 32.4431 131.431 32.5806 129.809 32.7864C129.393 32.8396 129.3 33.2728 129.61 33.5789C130.816 34.768 132.053 35.9182 133.456 37.2526C133.959 35.5461 134.414 34.0032 134.929 32.2556ZM108.73 28.167C108.806 28.2197 108.883 28.2724 108.959 28.3251C110.523 28.182 112.089 28.0572 113.651 27.8869C114.189 27.8281 114.339 27.3994 113.958 27.0229C112.757 25.8393 111.525 24.694 110.138 23.3746C109.635 25.0856 109.183 26.6263 108.73 28.167V28.167ZM133.301 23.5266C132.065 24.6996 130.859 25.8221 129.679 26.9752C129.281 27.3639 129.387 27.8204 129.895 27.8781C131.478 28.0572 133.065 28.1776 134.648 28.3206C134.757 27.2808 134.038 24.7262 133.301 23.5266ZM124.093 16.0438C122.528 15.7493 121.059 15.6905 119.516 16.0793C120.157 17.7836 120.752 19.3914 121.371 20.9881C121.436 21.1562 121.647 21.3803 121.768 21.3653C121.938 21.3436 122.162 21.1573 122.232 20.9793C122.853 19.3825 123.445 17.772 124.093 16.0438V16.0438ZM116.049 43.5187C116.468 41.5842 116.834 39.9381 117.169 38.2842C117.214 38.0629 117.167 37.6547 117.051 37.5943C116.87 37.5 116.555 37.5538 116.365 37.6758C115.281 38.3769 114.215 39.1156 113.145 39.8443C112.902 40.0101 112.666 40.1887 112.265 40.4788C113.561 41.5198 114.734 42.4621 116.049 43.5187ZM131.358 40.4505C129.848 39.4289 128.563 38.5471 127.262 37.6952C127.067 37.5677 126.796 37.5826 126.56 37.5322C126.518 37.8145 126.395 38.1162 126.446 38.3757C126.747 39.8982 127.088 41.4106 127.421 42.9252C127.448 43.05 127.52 43.1632 127.644 43.4532C128.875 42.4577 130.048 41.5093 131.358 40.4505V40.4505ZM110.265 37.1401C111.546 35.9188 112.778 34.7724 113.976 33.5844C114.326 33.2378 114.173 32.8313 113.678 32.7536C112.964 32.6416 112.243 32.5728 111.524 32.5179C110.647 32.4519 109.768 32.4192 108.824 32.3682C109.092 34.0897 109.5 35.6243 110.265 37.1401V37.1401ZM124.131 44.6844C123.488 42.9701 122.934 41.461 122.347 39.9686C122.241 39.6974 121.996 39.4927 121.815 39.2576C121.627 39.4828 121.369 39.6741 121.263 39.9397C120.73 41.2791 120.234 42.6368 119.73 43.9906C119.661 44.1731 119.621 44.3683 119.532 44.6844C121.091 44.6844 122.54 44.6844 124.131 44.6844V44.6844ZM127.549 17.1186C127.13 19.0465 126.761 20.6931 126.423 22.3475C126.377 22.5693 126.424 22.9792 126.539 23.0385C126.721 23.1334 127.038 23.0824 127.228 22.9598C128.441 22.1728 129.637 21.3514 130.835 20.5345C130.951 20.4551 131.043 20.3315 131.271 20.1035C130.03 19.108 128.854 18.1646 127.549 17.1186V17.1186ZM116.051 17.1031C114.724 18.1757 113.55 19.1246 112.235 20.1878C113.814 21.2416 115.203 22.1944 116.618 23.0951C116.989 23.3314 117.299 23.0335 117.199 22.5233C116.859 20.8007 116.475 19.0886 116.051 17.1031V17.1031ZM121.776 33.2312C123.279 33.2434 124.448 31.9428 124.44 30.2679C124.432 28.7028 123.245 27.395 121.82 27.3817C120.378 27.3678 119.142 28.7117 119.144 30.2917C119.146 31.9267 120.304 33.2195 121.776 33.2312V33.2312ZM124.059 32.8202C123.832 33.2351 123.602 33.4724 123.615 33.6921C123.626 33.8695 123.936 34.1596 124.103 34.1518C124.272 34.144 124.559 33.8285 124.558 33.6505C124.556 33.4303 124.31 33.2123 124.059 32.8202ZM126.21 28.7821C125.878 28.5419 125.655 28.2607 125.505 28.3023C125.305 28.3589 125.162 28.6656 124.994 28.8647C125.183 29.0339 125.361 29.3101 125.566 29.3367C125.719 29.3567 125.907 29.0577 126.21 28.7821ZM122.516 25.8421C122.185 25.5825 121.989 25.3085 121.816 25.3252C121.632 25.3429 121.469 25.6363 121.297 25.8094C121.47 26.0057 121.619 26.3091 121.822 26.3618C121.968 26.4 122.185 26.1044 122.516 25.8421V25.8421ZM119.524 32.8379C119.31 33.2167 119.077 33.4458 119.097 33.6427C119.118 33.8434 119.388 34.012 119.549 34.1945C119.719 33.9938 119.988 33.8129 120.025 33.5856C120.051 33.4186 119.774 33.1912 119.524 32.8379V32.8379ZM118.858 28.8431C118.518 28.5696 118.321 28.2901 118.15 28.3079C117.97 28.3262 117.728 28.6052 117.679 28.8176C117.648 28.954 117.925 29.3334 118.047 29.3239C118.271 29.3067 118.482 29.0827 118.858 28.8431V28.8431Z" fill="#87888A"/>
<path fill-rule="evenodd" clip-rule="evenodd" d="M121.776 33.2309C120.304 33.2193 119.146 31.9265 119.144 30.2915C119.142 28.7114 120.378 27.3676 121.82 27.3815C123.245 27.3948 124.432 28.7025 124.44 30.2676C124.448 31.9426 123.279 33.2431 121.776 33.2309V33.2309ZM121.765 32.7906C123.006 32.8056 124.046 31.683 124.076 30.2959C124.104 29.0198 123.002 27.8218 121.803 27.8246C120.556 27.8273 119.604 28.8967 119.596 30.3059C119.587 31.7978 120.439 32.7745 121.765 32.7906Z" fill="white"/>
<path fill-rule="evenodd" clip-rule="evenodd" d="M124.059 32.8208C124.31 33.2129 124.556 33.4309 124.558 33.6511C124.559 33.8291 124.272 34.1447 124.103 34.1524C123.936 34.1602 123.626 33.8701 123.615 33.6927C123.602 33.473 123.832 33.2357 124.059 32.8208Z" fill="white"/>
<path fill-rule="evenodd" clip-rule="evenodd" d="M126.21 28.7822C125.907 29.0578 125.719 29.3568 125.566 29.3368C125.361 29.3102 125.183 29.034 124.994 28.8648C125.162 28.6657 125.305 28.359 125.505 28.3025C125.655 28.2609 125.878 28.542 126.21 28.7822Z" fill="white"/>
<path fill-rule="evenodd" clip-rule="evenodd" d="M122.516 25.8418C122.185 26.1042 121.968 26.3998 121.822 26.3615C121.619 26.3088 121.47 26.0054 121.297 25.8091C121.469 25.636 121.632 25.3427 121.816 25.3249C121.989 25.3083 122.185 25.5823 122.516 25.8418V25.8418Z" fill="white"/>
<path fill-rule="evenodd" clip-rule="evenodd" d="M119.524 32.8384C119.774 33.1917 120.051 33.4191 120.025 33.586C119.988 33.8134 119.719 33.9942 119.549 34.195C119.388 34.0125 119.118 33.8439 119.097 33.6431C119.077 33.4462 119.31 33.2172 119.524 32.8384V32.8384Z" fill="white"/>
<path fill-rule="evenodd" clip-rule="evenodd" d="M118.858 28.8431C118.482 29.0827 118.271 29.3068 118.047 29.324C117.925 29.3334 117.648 28.954 117.679 28.8176C117.728 28.6052 117.97 28.3262 118.15 28.3079C118.321 28.2902 118.518 28.5697 118.858 28.8431V28.8431Z" fill="white"/>
<path fill-rule="evenodd" clip-rule="evenodd" d="M121.765 32.7907C120.439 32.7746 119.587 31.7979 119.596 30.306C119.604 28.8968 120.556 27.8275 121.803 27.8247C123.002 27.822 124.104 29.0199 124.076 30.2961C124.046 31.6831 123.006 32.8057 121.765 32.7907Z" fill="black"/>
<path d="M0.294342 61H400" stroke="#3C3B3B" stroke-width="2.0001"/>
<path d="M0 1H399.706" stroke="#3C3B3B" stroke-width="2.0001"/>
</svg>
